<?xml version="1.0" encoding="UTF-8"?>
<svg id="Layer_1" xmlns="http://www.w3.org/2000/svg" version="1.1" viewBox="0 0 841.89 595.28">
  <!-- Generator: Adobe Illustrator 30.2.1, SVG Export Plug-In . SVG Version: 2.1.1 Build 1)  -->
  <defs>
    <style>
      .st0 {
        fill: #34c881;
      }

      .st1 {
        fill: #160189;
      }
    </style>
  </defs>
  <g>
    <g>
      <path class="st0" d="M320.4,264.23c8.88,0,16.47,3.36,22.76,10.09,6.29,6.73,9.43,14.97,9.43,24.74s-3.15,18.01-9.43,24.74c-6.29,6.73-13.88,10.09-22.76,10.09s-16.36-3.21-21.37-9.63v34.17h-17.02v-92.35h17.02v7.78c5.01-6.42,12.14-9.63,21.37-9.63ZM304.17,312.45c3.43,3.47,7.78,5.21,13.06,5.21s9.65-1.74,13.13-5.21c3.47-3.47,5.21-7.94,5.21-13.39s-1.74-9.92-5.21-13.39c-3.48-3.47-7.85-5.21-13.13-5.21s-9.63,1.74-13.06,5.21c-3.43,3.48-5.15,7.94-5.15,13.39s1.72,9.92,5.15,13.39Z"/>
      <path class="st0" d="M412.09,266.08h17.02v65.97h-17.02v-7.78c-5.1,6.42-12.27,9.63-21.51,9.63s-16.34-3.36-22.63-10.09c-6.29-6.73-9.43-14.97-9.43-24.74s3.14-18.01,9.43-24.74c6.29-6.73,13.83-10.09,22.63-10.09,9.24,0,16.4,3.21,21.51,9.63v-7.78ZM380.69,312.45c3.43,3.47,7.78,5.21,13.06,5.21s9.65-1.74,13.13-5.21c3.47-3.47,5.21-7.94,5.21-13.39s-1.74-9.92-5.21-13.39c-3.48-3.47-7.85-5.21-13.13-5.21s-9.63,1.74-13.06,5.21c-3.43,3.48-5.15,7.94-5.15,13.39s1.71,9.92,5.15,13.39Z"/>
      <path class="st0" d="M458.92,277.42c1.58-4.22,4.2-7.39,7.85-9.5,3.65-2.11,7.72-3.17,12.2-3.17v19c-5.19-.61-9.83.44-13.92,3.17-4.09,2.73-6.13,7.26-6.13,13.59v31.53h-17.02v-65.97h17.02v11.35Z"/>
      <path class="st1" d="M527.13,266.08v65.96h17.02v-65.96h-17.02ZM512.88,256.65c2.29-1.63,5.81-2.45,10.55-2.45,4.4,0,9.54.35,15.44,1.06v-15.56c-5.63-1.23-10.77-1.85-15.44-1.85-20.67,0-31,9.19-31,27.58v.66h-9.49v16.35h9.49v49.61h17.02v-49.61h12.28v-16.35h-12.28v-.66c0-4.23,1.13-7.15,3.42-8.77Z"/>
      <path class="st1" d="M593.76,264.23c7.21,0,13.17,2.42,17.88,7.26,4.7,4.84,7.06,11.52,7.06,20.05v40.5h-17.02v-38.39c0-4.4-1.19-7.76-3.56-10.09-2.37-2.33-5.54-3.5-9.5-3.5-4.4,0-7.92,1.36-10.55,4.09-2.64,2.73-3.96,6.82-3.96,12.27v35.62h-17.02v-65.97h17.02v7.39c4.13-6.16,10.69-9.24,19.66-9.24Z"/>
    </g>
    <path class="st0" d="M637.53,238.83l-7.99,41.02c-1.6-6.59-4.67-12.23-9.18-16.87-6.15-6.32-14.07-10.03-23.06-10.78l40.23-13.37Z"/>
    <path class="st1" d="M593.76,264.23c7.21,0,13.17,2.42,17.88,7.26,4.7,4.84,7.06,11.52,7.06,20.05v40.5h-17.02v-38.39c0-4.4-1.19-7.76-3.56-10.09-2.37-2.33-5.54-3.5-9.5-3.5-4.4,0-7.92,1.36-10.55,4.09-2.64,2.73-3.96,6.82-3.96,12.27v35.62h-17.02v-65.97h17.02v7.39c4.13-6.16,10.69-9.24,19.66-9.24Z"/>
  </g>
  <g>
    <path class="st0" d="M265.9,304.41c0,6.05-2.71,11.48-7.62,15.28-4.26,3.32-9.92,4.94-17.32,4.94-13.5,0-23.75-6.27-29.16-17.73l4.53-1.9c4.61,9.53,13.26,14.73,24.63,14.73,6.26,0,10.94-1.27,14.32-3.91,3.69-2.87,5.72-6.92,5.72-11.41,0-5.16-2.49-9.54-7.01-12.35-3.28-2.03-8.43-4-16.15-6.18l-.53-.16c-5.01-1.49-10.19-3.04-14.79-6.47-4.05-3.01-6.36-7.78-6.48-13.4-.12-5.95,1.9-10.58,6.2-14.17,4.49-3.76,9.8-5.58,16.24-5.58,5.89,0,10.88,1.36,15.25,4.18,4.34,2.78,7.65,6.56,10.13,11.56l-4.42,2.09c-2.08-4.14-4.81-7.25-8.35-9.54-3.56-2.29-7.68-3.39-12.6-3.39-5.24,0-9.53,1.45-13.1,4.45-3.11,2.61-4.52,5.88-4.43,10.3.06,2.89.89,6.9,4.49,9.58,3.92,2.91,8.46,4.26,13.28,5.7l.5.15c8.14,2.3,13.68,4.45,17.37,6.75,6.01,3.72,9.32,9.59,9.32,16.5Z"/>
    <path class="st0" d="M271.6,258.16l-4.42,2.09c-2.77-5.56-6.63-9.94-11.46-13.08-4.91-3.16-10.72-4.75-17.24-4.75-7.34,0-13.42,2.11-18.6,6.44-5.05,4.23-7.51,9.76-7.51,16.93,0,3.6.64,6.76,1.89,9.39,1.21,2.58,3.03,4.75,5.36,6.44,2.54,1.84,5.08,3.31,7.61,4.4,2.57,1.11,5.81,2.24,9.6,3.38,7.29,2.06,12.28,3.94,15.24,5.78,3.44,2.14,5.27,5.33,5.27,9.22,0,3.39-1.49,6.33-4.3,8.52-2.71,2.09-6.65,3.12-12.06,3.12-10.09,0-17.22-4.19-21.24-12.49l4.52-1.9c3.21,6.38,8.71,9.49,16.72,9.49,4.23,0,7.26-.71,9.05-2.09,1.64-1.27,2.41-2.76,2.41-4.65,0-2.2-.94-3.81-2.95-5.06-2.52-1.57-7.24-3.33-14.02-5.24-4-1.2-7.42-2.4-10.18-3.59-2.84-1.22-5.71-2.88-8.54-4.92-3.01-2.18-5.34-4.97-6.92-8.33-1.56-3.28-2.35-7.15-2.35-11.48,0-8.59,3.12-15.54,9.26-20.69,6.03-5.03,13.34-7.58,21.75-7.58,7.48,0,14.17,1.86,19.89,5.54,5.62,3.61,10.08,8.71,13.24,15.1Z"/>
    <path class="st0" d="M274.46,304.16c0,8.77-3.26,15.85-9.66,21.03-6.26,5.06-14.44,7.62-24.34,7.62-9.05,0-16.82-2.07-23.06-6.17-6.2-4.05-10.66-9.61-13.24-16.53l4.52-1.9c2.24,6.1,5.98,10.79,11.4,14.34,5.44,3.56,12.3,5.36,20.38,5.36,8.74,0,15.88-2.19,21.25-6.53,5.28-4.27,7.85-9.9,7.85-17.22,0-2.24-.28-4.32-.83-6.2-.56-1.91-1.24-3.55-2.01-4.86-.45-.78-1.86-3.2-3.38-4.48-1.57-1.33-2.96-2.4-4.15-3.16-1.15-.75-2.84-1.57-5.05-2.46-2.99-1.2-6.16-2.22-9.21-3.2-1.4-.44-2.78-.88-4.15-1.35-.98-.33-1.98-.6-3.06-.91-2.98-.82-6.06-1.67-8.71-3.64-2.88-2.14-4.4-5.12-4.4-8.61,0-3.29,1.37-6.12,3.96-8.19,2.46-1.96,5.81-2.95,9.91-2.95,8.1,0,14.18,3.74,18.13,11.11l-4.45,2.11c-3.06-5.58-7.54-8.32-13.68-8.32-2.98,0-5.28.64-6.85,1.89-1.46,1.15-2.12,2.54-2.12,4.36,0,1.96.76,3.44,2.42,4.68,1.91,1.43,4.42,2.12,7.08,2.85,1.09.29,2.22.61,3.32.98,1.36.45,2.72.89,4.08,1.32,3.15,1,6.41,2.05,9.55,3.32,2.52,1.02,4.45,1.96,5.88,2.88,1.37.89,2.94,2.08,4.67,3.55,1.94,1.64,3.47,4.07,4.45,5.76.97,1.65,1.8,3.65,2.46,5.94.69,2.33,1.04,4.87,1.04,7.58Z"/>
  </g>
</svg>